<svg width="772" height="772" viewBox="0 0 772 772" fill="none" xmlns="http://www.w3.org/2000/svg" xmlns:xlink="http://www.w3.org/1999/xlink">
<g opacity="1">
<path d="M19.395,506.02C27.967,532.25 39.411,557.364 53.365,581.18L386.128,248.222L525.118,387.054C524.68,443.046 490.43,493.332 438.638,514.556C386.846,535.8 327.618,523.832 288.046,484.236L233.504,538.812C299.668,605.018 400.562,621.174 483.972,578.726C567.382,536.28 614.25,445.08 599.756,352.586L386.128,138.831L19.395,506.02Z" fill="#106D76"/>
<path d="M719.032,581.14C732.986,557.324 744.35,532.09 752.922,505.86L640.564,393.556C639.628,424.456 633.348,454.974 621.526,483.518L719.032,581.14Z" fill="#106D76"/>
<path d="M113.411,658.974C264.144,809.716 508.214,809.656 658.946,658.914L604.322,604.398C483.754,725.04 288.524,725.04 167.955,604.398L113.411,658.974Z" fill="#106D76"/>
<path d="M764.304,462.654C785.096,360.066 763.348,253.448 704.02,167.216C694.37,193.227 671.446,211.978 644.094,216.466C678.442,268.828 696.086,330.424 694.65,393.058L764.304,462.654Z" fill="#106D76"/>
<path d="M670.328,140.148C670.328,118.804 653.024,101.49 631.694,101.49C610.364,101.49 593.06,118.804 593.06,140.148C593.06,161.491 610.364,178.806 631.694,178.806C653.024,178.806 670.328,161.491 670.328,140.148Z" fill="#106D76"/>
<path d="M604.762,67.979C475.14,-21.185 304.374,-22.761 173.138,63.99C41.903,150.74 -23.545,308.462 7.714,462.654L77.348,393.038C74.717,278.282 135.919,171.505 236.254,115.832C336.59,60.159 459.65,64.648 555.56,127.641C560.046,100.293 578.786,77.634 604.762,67.979Z" fill="#106D76"/>
</g>
</svg>
